<svg width="656" height="490" viewBox="0 0 656 490" fill="none" xmlns="http://www.w3.org/2000/svg">
<path d="M15.5818 343.04C24.9923 338.411 44.065 332.215 54.8278 329.642C55.0253 329.592 55.2226 329.542 55.4199 329.492C57.9739 328.852 60.3766 328.254 63.1804 327.597C69.918 326.106 79.111 323.756 98.5328 321.846C104.306 321.185 109.802 320.731 115.6 320.451C146.214 319.109 178.179 322.647 206.597 337.334C235.253 350.632 257.015 385.368 249.036 417.819C248.892 418.64 248.729 419.492 248.571 420.264C246.22 432.094 240.811 444.654 234.922 454.615C232.815 458.208 230.781 461.123 228.691 463.769C218.617 476.339 208.52 482.103 200.173 485.465C176.273 496.329 144.276 486.55 132.216 462.855C119.646 439.716 123.341 412.677 130.928 389.954C135.828 375.424 142.581 361.822 150.288 348.831C151.477 346.832 152.71 344.814 153.989 342.777C160.114 333.02 166.428 323.424 172.957 313.969C177.432 307.287 181.77 300.994 185.874 295.212C191.648 287.077 196.95 279.969 201.486 274.201C212.381 260.292 225.742 245.32 236.023 234.571C237.7 232.81 239.293 231.156 240.771 229.631C248.84 221.005 257.129 212.574 265.626 204.354C266.234 203.847 266.848 203.338 267.474 202.822C275.278 196.417 284.337 187.97 299.242 175.398C305.738 169.938 313.352 163.719 322.56 156.669C328.493 152.136 331.722 150.085 334.371 148.391C335.151 147.895 335.882 147.43 336.617 146.951C339.139 145.304 341.573 143.306 344.474 140.961C348.229 137.93 352.837 134.262 359.313 130.219C380.11 117.324 389.017 111.337 395.703 106.656C397.674 105.294 399.471 104.066 401.351 102.866C407.383 98.999 416.439 94.07 423.345 90.6243C428.81 87.8707 439.523 81.8071 447.654 77.2841C450.734 75.5624 455.005 73.3863 460.001 70.9074C465.174 68.34 471.303 65.3641 477.689 62.2113C494.031 54.1757 502.767 50.2693 509.9 47.0484C511.906 46.1485 513.781 45.3151 515.659 44.4848C521.586 41.8629 529.09 38.6764 536.601 35.5965C545.673 31.8714 554.879 28.2529 561.926 25.4868C580.343 18.8557 598.941 12.715 617.636 6.98996C627.237 4.04845 636.655 1.80821 643.71 0.7345C650.791 -0.346117 655.01 -0.225787 655.372 1.03856C655.739 2.30615 652.228 4.62789 645.736 7.56759C639.268 10.4996 630.266 13.8493 620.804 16.9669C601.727 23.2451 582.814 29.9446 564.054 37.092C541.217 45.7933 518.689 55.1256 496.415 65.1674C480.791 72.2131 465.472 79.5633 450.247 87.3775C448.684 88.1799 447.125 88.9853 445.571 89.7938C433.017 96.7374 420.694 104 412.062 109.17C404.961 113.417 399.636 116.45 395.162 119.028C392.086 120.804 389.34 122.415 386.64 124.14C385.191 125.067 383.22 126.345 380.86 127.897C371.2 134.212 355.018 145.331 340.483 155.75C334.017 160.358 326.522 165.747 319.473 171.033C309.376 178.584 300.211 185.942 295.795 189.932C288.056 196.899 279.105 204.831 271.377 212.031C263.993 218.892 257.705 225.069 254.36 228.81C250.37 233.279 246.761 236.89 241.484 242.351C237.83 246.143 233.373 250.829 227.555 257.416C220.848 265.026 216.132 270.443 212.152 275.076C206.573 281.6 202.421 286.592 196.841 294.442C190.634 303.185 184.296 312.378 179.198 319.564C176.878 322.829 174.304 326.629 171.664 330.618C168.175 335.886 164.586 341.467 161.239 346.557C161.118 346.741 160.997 346.924 160.877 347.106C158.214 351.144 156.038 354.361 154.18 357.193C153.581 358.106 152.99 359.024 152.411 359.953C150.448 363.528 148.68 366.95 146.986 370.461C146.736 371.072 146.479 371.713 146.216 372.379C144.872 375.795 143.508 379.499 141.614 384.725C138.831 392.531 136.516 399.524 134.733 407.122C133.395 412.89 132.343 419.212 132.242 426.196C132.168 431.121 132.621 436.576 133.738 441.768C135.337 449.556 138.703 456.673 141.586 461.125C142.636 462.788 143.557 464.271 144.528 465.674C144.532 465.68 144.536 465.687 144.54 465.693C144.606 465.788 144.673 465.883 144.739 465.978C153.232 475.875 166.302 481.242 179.243 480.526C180.358 480.444 181.486 480.32 182.605 480.156C188.023 479.391 193.126 477.509 196.155 475.905C199.505 474.261 207.885 469.64 214.608 462.134C218.507 457.901 221.809 453.091 224.309 448.485C224.707 447.755 225.085 447.045 225.443 446.358C227.039 443.282 228.608 440.541 230.072 437.755C231.522 434.965 232.893 432.059 233.953 428.922C234.467 427.397 235.003 425.532 235.472 423.615C235.887 421.925 236.264 420.165 236.611 418.363C236.915 416.777 237.845 412.688 238.264 407.936C238.541 404.826 238.62 401.383 238.327 397.802C237.301 388.303 233.755 379.225 228.159 371.535C226.892 369.998 225.64 368.737 224.598 367.876C223.841 367.248 223.138 366.767 222.408 366.285C221.413 365.63 220.374 364.972 219.014 363.988C217.966 363.233 216.823 362.3 216.101 361.577C215.767 361.241 215.533 360.954 215.317 360.694C215.07 360.396 214.846 360.131 214.52 359.868C214.285 359.68 214.008 359.521 213.666 359.328C213.127 359.026 212.383 358.604 211.429 357.908C207.851 355.285 203.371 352.479 198.827 350.146C193.686 347.487 188.48 345.386 184.198 343.961C179.428 342.352 172.54 340.191 165.274 338.581C160.376 337.474 155.183 336.579 150.829 336.039C146.618 335.507 141.912 335.241 137.615 335.144C132.438 335.019 127.168 335.104 122.969 335.029C122.102 335.013 121.019 334.838 119.646 334.634C118.673 334.489 117.547 334.33 116.257 334.204C110.647 334.475 105.306 334.904 99.6841 335.526C99.4904 335.575 99.2906 335.626 99.0904 335.678C99.0873 335.679 99.0841 335.68 99.081 335.681C94.7335 336.833 88.5928 338.507 80.005 339.593C77.8134 339.873 76.3927 339.912 75.1089 339.952C73.8476 339.993 72.7155 340.034 71.1035 340.348C69.2457 340.711 67.2106 341.313 64.9473 342.012C61.7771 342.991 58.2303 344.146 54.532 344.969C54.2798 345.025 54.0056 345.086 53.733 345.147C51.1228 345.731 47.2437 346.65 43.2802 347.459C31.9186 350.987 20.7983 355.111 9.84843 359.827C-8.34235 367.663 -25.9076 377.081 -42.6513 387.916C-50.7018 393.11 -58.6508 398.21 -64.6167 401.609C-70.6421 405.051 -74.4706 406.632 -75.2937 405.626C-76.1124 404.636 -73.8574 401.111 -68.9184 396.051C-64.0446 391.04 -56.5904 384.796 -48.4652 379.211C-35.0085 369.952 -21.1319 361.669 -6.53451 354.279C-5.77984 353.88 -5.02132 353.483 -4.26538 353.092C1.30206 350.214 6.64204 347.423 11.9244 344.816C13.1402 344.216 14.3587 343.623 15.5818 343.04Z" fill="#0F76B7"/>
</svg>
