<svg width="718" height="409" viewBox="0 0 718 409" fill="none" xmlns="http://www.w3.org/2000/svg">
<path d="M497.945 198.258C517.161 188.911 529.446 176.608 552.106 164.001C574.685 151.285 579.349 151.427 604.166 134.993C628.856 118.563 654.276 102.952 664.435 94.381C674.52 85.8538 677.558 87.5504 692.179 75.7025C706.631 63.8678 715.931 57.0024 729.2 47.4034C742.796 37.9466 781.062 4.80756 792.874 -9.34859C805.057 -23.2158 820.674 -37.1237 829.3 -46.44C831.976 -49.307 834.118 -51.5155 835.797 -53.1745C836.508 -53.8774 836.955 -54.1031 837.108 -53.977C837.108 -53.9769 837.108 -53.9768 837.108 -53.9767C837.297 -53.8192 837.029 -53.1158 836.23 -52.1121C832.355 -47.2405 826.59 -39.8779 819.692 -30.9674C806.958 -14.7563 803.995 -14.0998 784.629 5.94709C764.926 25.8393 753.458 38.3424 727.192 58.4087C700.791 78.045 697.604 86.6503 658.141 111.386C618.383 135.511 616.86 142.182 577.725 167.097C538.459 191.922 485.757 217.523 461.035 230.468C436.347 243.553 403.09 260.758 366.889 276.855C330.758 292.988 286.639 314.008 245.77 329.351C204.93 344.897 146.525 365.092 119.3 373.473C92.1449 381.904 85.3343 383.968 59.6265 392.926C44.4533 398.169 24.2172 404.099 5.84444 408.089C-2.95674 409.957 -1.30019 408.587 7.35238 405.656C20.5055 401.203 30.7721 398.479 37.4312 395.278C49.8112 389.14 55.706 386.402 72.4985 382.233C90.0153 377.784 96.3338 372.548 106.473 369.404C116.047 366.343 116.79 368.308 165.226 349.052C213.553 329.57 240.033 318.178 258.044 310.429C276.215 302.615 314.722 287.751 343.753 273.87C372.924 260.248 431.944 231.99 454.846 218.863C477.796 205.886 478.712 207.508 497.945 198.258Z" fill="#0F76B7"/>
</svg>
